# xmcd
#
# Track frame offsets:
#	187
#	6952
#	27030
#	48637
#	68845
#	89470
#	108970
#	134107
#	160035
#	177957
#	196537
#
# Disc length: 2925 seconds
#
# Revision: 0
# Processed by: cddbd v1.5.2PL0 Copyright (c) Steve Scherf et al.
# Submitted via: EasyCDDAExtractor 2010.4.0.0
#
DISCID=8b0b6b0b
DTITLE=Various Artist - Tôi ơi đừng tuyệt vọng
DYEAR=1993
DGENRE=
TTITLE0=intro
TTITLE1=Trịnh Vĩnh Trinh - Xin trả nợ người
TTITLE2=Trịnh Công Sơn - Con mắt còn lại
TTITLE3=Trịnh Vĩnh Trinh - Còn tôi với ai
TTITLE4=Khánh Ly - Vẫn có em bên đời
TTITLE5=Trịnh Vĩnh Trinh - Níu tay nghìn trùng
TTITLE6=Trịnh Vĩnh Trinh - Ru tình
TTITLE7=Khánh Ly - Đời gọi em biết bao lần
TTITLE8=Trịnh Vĩnh Trinh - Tuổi đời mênh mông
TTITLE9=Trịnh Công Sơn - Như một lời chia tay
TTITLE10=Trịnh Vĩnh Trinh - Tôi ơi đừng tuyệt vọng
EXTD=
EXTT0=
EXTT1=
EXTT2=
EXTT3=
EXTT4=
EXTT5=
EXTT6=
EXTT7=
EXTT8=
EXTT9=
EXTT10=
PLAYORDER=
